<?xml version="1.0" encoding="UTF-8"?>
<svg id="Layer_1" data-name="Layer 1" xmlns="http://www.w3.org/2000/svg" viewBox="0 0 666.67 600">
  <defs>
    <style>
      .cls-1 {
        fill-rule: evenodd;
      }

      .cls-1, .cls-2 {
        fill: #4d1965;
      }
    </style>
  </defs>
  <g id="SVGRepo_iconCarrier" data-name="SVGRepo iconCarrier">
    <path class="cls-2" d="M0,66.67C0,35.24,0,19.53,9.76,9.76,19.53,0,35.24,0,66.67,0h533.33c31.43,0,47.14,0,56.9,9.76,9.76,9.76,9.76,25.48,9.76,56.9s0,47.14-9.76,56.9c-9.76,9.76-25.48,9.76-56.9,9.76H66.67c-31.43,0-47.14,0-56.9-9.76C0,113.81,0,98.09,0,66.67Z"/>
    <path class="cls-1" d="M602.3,183.33c4.71,0,9.54,0,14.37-.06v150.06c0,125.71,0,188.56-39.05,227.61-39.05,39.05-101.91,39.05-227.61,39.05h-33.33c-125.71,0-188.56,0-227.61-39.05-39.05-39.05-39.05-101.91-39.05-227.61v-150.06c4.83.07,9.67.06,14.37.06h537.93ZM233.33,300c0-15.53,0-23.3,2.54-29.42,3.38-8.17,9.87-14.66,18.04-18.04,6.13-2.54,13.89-2.54,29.42-2.54h100c15.53,0,23.3,0,29.42,2.54,8.17,3.38,14.66,9.87,18.04,18.04,2.54,6.13,2.54,13.89,2.54,29.42s0,23.3-2.54,29.42c-3.38,8.17-9.87,14.66-18.04,18.04-6.13,2.54-13.89,2.54-29.42,2.54h-100c-15.53,0-23.3,0-29.42-2.54-8.17-3.38-14.66-9.87-18.04-18.04-2.54-6.13-2.54-13.89-2.54-29.42Z"/>
  </g>
</svg>