<?xml version="1.0" encoding="UTF-8"?>
<svg id="Layer_1" data-name="Layer 1" xmlns="http://www.w3.org/2000/svg" viewBox="0 0 110.26 104.64">
  <defs>
    <style>
      .cls-1 {
        fill: #0891b2;
      }
    </style>
  </defs>
  <g id="_20-flag" data-name=" 20-flag">
    <g id="filled_outline" data-name="filled outline">
      <path class="cls-1" d="M.24,15.99c.14.24,3.56,5.88,9.28,11.03,3.4,3.06,6.92,5.31,10.46,6.69,4.51,1.75,9.05,2.08,13.48.97,8.59-2.15,14.62-.9,17.94,3.69.28.39.83,1.15,1.72,1.15.19,0,.38-.03.56-.09.37-.12,1.22-.54,1.22-1.9v-2.99c.36.05.74.09,1.12.12v34.24c0,.93.75,1.68,1.68,1.68s1.68-.75,1.68-1.68v-34.24c3.39-.27,6.72-1.37,6.72-3.86s-3.33-3.59-6.72-3.86v-7.97c3.39-.27,6.72-1.37,6.72-3.86s-3.33-3.59-6.72-3.86V1.68c0-.93-.75-1.68-1.68-1.68s-1.68.75-1.68,1.68v9.59c-.38.03-.76.07-1.12.12v-1c0-.66-.39-1.27-1-1.54-.2-.09-4.89-2.13-11.88-2.13-6.6,0-11.24,2.87-15.73,5.65-6.63,4.1-12.36,7.64-23.79,1.29-.66-.37-1.5-.25-2.02.3-.53.55-.62,1.38-.23,2.03ZM54.9,18.86c.36.05.74.09,1.12.12v7.97c-.38.03-.76.07-1.12.12v-8.22ZM56.02,14.64v.97c-.39-.04-.76-.09-1.12-.15v-.67c.36-.06.73-.11,1.12-.15ZM59.38,15.61v-.97c.85.07,1.7.23,2.51.48-.82.25-1.66.42-2.51.48ZM59.38,31.3v-.97c.85.07,1.7.23,2.51.48-.82.25-1.66.42-2.51.48ZM54.9,31.14v-.67c.36-.06.73-.11,1.12-.15v.97c-.39-.04-.76-.09-1.12-.15ZM6.78,19.26c2.58.87,4.9,1.24,7.02,1.24,5.72,0,10.03-2.67,14.26-5.28,4.28-2.64,8.32-5.14,13.96-5.14,4.5,0,7.92.93,9.52,1.47v22.06c-.96-.77-2.03-1.41-3.17-1.9-4.1-1.78-9.39-1.87-15.73-.29-11.3,2.83-20.89-6.14-25.87-12.16Z"/>
    </g>
  </g>
  <path class="cls-1" d="M93.75,64.19c-.42-1.62-1.12-3.15-2.07-4.53l-4.63,1.38c1.56,2.52,2.41,5.4,2.48,8.36l4.52-1.35c.08-.03.14-.07.14-.08.01-1.27-.13-2.54-.43-3.77Z"/>
  <path class="cls-1" d="M59.96,44.79c8.7,11.69,6.73,26.63,26.66,22.59-.3-1.83-.98-3.58-2-5.13-.86-.78-.91-2.11-.13-2.97.26-.29.6-.49.97-.6l5.51-1.64c1.07-.35,2.24.05,2.88.97,1.38,1.97,2.32,4.21,2.76,6.57,6.64-2.4,9.32-5.51,7.35-13.11-1.65-4.83-4.13-9.34-7.33-13.31-2.83-3.49-6.71-2.36-10.8-1.64-.82-4.98-5.53-8.34-10.5-7.52-.02,0-.05,0-.07.01-5.2.86-8.04,5.6-7.56,10.59-2.27.63-9.66.65-8.93,3.56.05.15.47.6,1.2,1.61ZM75.79,31.68c3.44-.57,6.71,1.72,7.35,5.15l-12.74,2.15v-1.01c0-3.14,2.3-5.81,5.4-6.29Z"/>
  <path class="cls-1" d="M66.45,98.4c-1.18-9.27-2.16-18.3-2.91-26.66-.29-3.33-.54-6.91-.87-10.2-.68-4.44-.31-7.42-2.02-10.46-1.09-2.11-2.38-4.11-3.87-5.97-1.78,4.74-2.19,8.9-2.83,14.45-.64,10.83-4.73,31.8,4.37,40.34.53.61,3.08,3.14,8.82,4.22-.21-1.87-.46-3.85-.7-5.72Z"/>
  <path class="cls-1" d="M110.15,82.05c-13.29,5.4-29.32,9.53-41.69,10.61.32,2.53.78,6.28,1.15,9.1.29,3.28.08,2.83,3.3,2.88,3.43-.03,6.84-.43,10.19-1.19.54-.08,13.2-2.03,20.44-5.88,5.77-3.02,7.18-9.3,6.62-15.52Z"/>
  <path class="cls-1" d="M104.59,81.29c1.75-.63,3.45-1.29,5.17-1.99-.73-3.1-1.71-6.15-2.91-9.1l-2.29-7.02c-2.41,2.21-4.82,3.03-7.7,4.22v.64c-.01,1.23-.85,2.3-2.04,2.61l-5.11,1.52c-1.13.39-2.36-.2-2.75-1.33-.08-.23-.12-.48-.12-.73-9.42,1.94-17.35-.26-21.5-9.08.85,9.89,1.56,18.3,2.8,28.94,12.46-1.36,24.71-4.27,36.45-8.67Z"/>
  <path class="cls-1" d="M52.79,96.98c-1.06-2.27-1.8-4.67-2.19-7.14-2.09-1.57-3.49-3.9-3.88-6.48-.96-4.87.31-10.32,3.77-16.22.18-1.84.36-3.17.51-5.17.34-4.38.95-8.73,1.83-13.03-10.43,5.5-19.79,23.37-15.75,36.78,1.53,5.94,4.56,10.06,8.98,12.28,2.61,1.26,5.49,1.84,8.39,1.69-.64-.85-1.2-1.76-1.66-2.72Z"/>
  <g id="_20-flag-2" data-name=" 20-flag">
    <g id="filled_outline-2" data-name="filled outline">
      <path class="cls-1" d="M53.59,13.61c.1.17,2.48,4.1,6.47,7.69,2.37,2.14,4.83,3.71,7.3,4.67,3.15,1.22,6.31,1.45,9.4.68,5.99-1.5,10.2-.63,12.52,2.58.2.28.58.8,1.2.8.13,0,.26-.02.39-.06.26-.08.85-.38.85-1.32v-2.08c.25.04.51.06.78.08v23.88c0,.65.52,1.17,1.17,1.17s1.17-.52,1.17-1.17v-23.88c2.37-.19,4.69-.96,4.69-2.69s-2.32-2.5-4.69-2.69v-5.56c2.37-.19,4.69-.96,4.69-2.69s-2.32-2.5-4.69-2.69V3.63c0-.65-.52-1.17-1.17-1.17s-1.17.52-1.17,1.17v6.69c-.27.02-.53.05-.78.08v-.7c0-.46-.27-.88-.7-1.07-.14-.06-3.41-1.49-8.29-1.49-4.6,0-7.84,2-10.97,3.94-4.62,2.86-8.62,5.33-16.59.9-.46-.26-1.04-.17-1.41.21-.37.38-.44.96-.16,1.42ZM91.71,15.61c.25.04.51.06.78.08v5.56c-.27.02-.53.05-.78.08v-5.73ZM92.5,12.67v.67c-.27-.03-.53-.06-.78-.1v-.47c.25-.04.51-.08.78-.1ZM94.84,13.34v-.68c.59.05,1.18.16,1.75.34-.57.18-1.16.29-1.75.34ZM94.84,24.28v-.68c.59.05,1.18.16,1.75.34-.57.18-1.16.29-1.75.34ZM91.71,24.18v-.47c.25-.04.51-.08.78-.1v.67c-.27-.03-.53-.06-.78-.1ZM58.14,15.89c1.8.61,3.42.86,4.9.86,3.99,0,7-1.86,9.94-3.68,2.98-1.84,5.8-3.59,9.74-3.59,3.14,0,5.53.65,6.64,1.03v15.39c-.67-.54-1.42-.99-2.21-1.33-2.86-1.24-6.55-1.31-10.97-.2-7.88,1.97-14.57-4.28-18.04-8.48Z"/>
    </g>
  </g>
</svg>