<?xml version="1.0" encoding="UTF-8"?>
<svg id="Layer_1" xmlns="http://www.w3.org/2000/svg" version="1.1" viewBox="0 0 270 249">
  <!-- Generator: Adobe Illustrator 29.5.1, SVG Export Plug-In . SVG Version: 2.1.0 Build 141)  -->
  <g id="_20-flag">
    <g id="filled_outline">
      <path d="M11.35,42.61c.31.52,7.73,12.77,20.17,23.97,7.4,6.66,15.05,11.55,22.73,14.54,9.81,3.81,19.67,4.53,29.3,2.12,18.66-4.67,31.78-1.96,39,8.03.62.86,1.8,2.49,3.73,2.49.41,0,.82-.07,1.21-.2.8-.26,2.65-1.18,2.65-4.12v-6.49c.79.11,1.6.2,2.44.26v74.41c0,2.02,1.64,3.65,3.65,3.65s3.65-1.64,3.65-3.65v-74.41c7.37-.58,14.61-2.99,14.61-8.38s-7.24-7.8-14.61-8.38v-17.33c7.37-.58,14.61-2.99,14.61-8.38s-7.24-7.8-14.61-8.38V11.51c0-2.02-1.64-3.65-3.65-3.65s-3.65,1.64-3.65,3.65v20.84c-.83.07-1.64.15-2.44.26v-2.18c0-1.44-.85-2.75-2.17-3.34-.43-.19-10.62-4.63-25.83-4.63-14.34,0-24.43,6.24-34.18,12.27-14.41,8.91-26.85,16.61-51.7,2.8-1.45-.8-3.25-.53-4.4.65-1.15,1.19-1.36,3-.51,4.42ZM130.15,48.84c.79.11,1.6.2,2.44.26v17.33c-.83.07-1.64.15-2.44.26v-17.86ZM132.58,39.68v2.1c-.85-.08-1.66-.19-2.44-.32v-1.45c.77-.13,1.59-.24,2.44-.32ZM139.89,41.78v-2.11c1.85.15,3.68.5,5.46,1.05-1.78.55-3.61.9-5.46,1.05ZM139.89,75.87v-2.11c1.85.15,3.68.5,5.46,1.05-1.78.55-3.61.9-5.46,1.05ZM130.15,75.54v-1.45c.77-.13,1.59-.24,2.44-.32v2.1c-.85-.08-1.66-.19-2.44-.32ZM25.56,49.72c5.61,1.9,10.65,2.69,15.26,2.69,12.44,0,21.81-5.79,30.98-11.47,9.29-5.75,18.07-11.18,30.34-11.18,9.78,0,17.22,2.03,20.7,3.2v47.94c-2.1-1.68-4.41-3.07-6.88-4.13-8.91-3.86-20.41-4.07-34.18-.63-24.56,6.14-45.41-13.34-56.22-26.42Z"/>
    </g>
  </g>
  <path d="M214.6,147.37c-.91-3.52-2.43-6.86-4.5-9.85l-10.06,3c3.39,5.47,5.24,11.74,5.38,18.17l9.82-2.94c.18-.06.29-.15.29-.18.02-2.76-.29-5.52-.94-8.2Z"/>
  <path d="M141.15,105.21c18.91,25.4,14.63,57.89,57.95,49.1-.66-3.98-2.14-7.77-4.35-11.14-1.86-1.7-1.99-4.6-.28-6.46.57-.62,1.3-1.07,2.11-1.31l11.97-3.56c2.33-.76,4.88.1,6.26,2.12,3,4.28,5.04,9.15,6,14.29,14.43-5.22,20.26-11.99,15.97-28.49-3.59-10.5-8.98-20.29-15.94-28.93-6.15-7.59-14.59-5.12-23.46-3.56-1.79-10.82-12.01-18.14-22.83-16.35-.05,0-.11.02-.16.03-11.31,1.88-17.47,12.17-16.44,23.02-4.94,1.38-21,1.41-19.41,7.73.12.32,1.03,1.29,2.62,3.5ZM175.55,76.71c7.48-1.24,14.58,3.74,15.97,11.2l-27.7,4.67v-2.21c.02-6.82,4.99-12.62,11.73-13.67Z"/>
  <path d="M155.26,221.73c-2.57-20.15-4.68-39.78-6.32-57.95-.62-7.23-1.17-15.01-1.88-22.17-1.48-9.65-.67-16.12-4.38-22.73-2.36-4.59-5.18-8.94-8.41-12.97-3.87,10.3-4.75,19.35-6.15,31.4-1.4,23.53-10.29,69.11,9.5,87.68,1.15,1.32,6.7,6.82,19.17,9.17-.46-4.06-1.01-8.36-1.53-12.44Z"/>
  <path d="M250.23,186.18c-28.88,11.74-63.72,20.71-90.62,23.05.7,5.5,1.69,13.64,2.5,19.79.63,7.13.17,6.15,7.17,6.26,7.45-.07,14.87-.93,22.14-2.59,1.18-.18,28.7-4.41,44.43-12.79,12.54-6.57,15.6-20.21,14.38-33.72Z"/>
  <path d="M238.15,184.53c3.8-1.36,7.51-2.8,11.23-4.32-1.6-6.75-3.71-13.36-6.32-19.79l-4.97-15.26c-5.23,4.8-10.47,6.59-16.73,9.17l.03,1.38c-.06,2.68-1.88,4.99-4.47,5.67l-11.11,3.29c-2.45.85-5.12-.44-5.97-2.89-.18-.51-.26-1.04-.26-1.58-20.48,4.22-37.71-.55-46.72-19.73,1.85,21.49,3.4,39.77,6.09,62.89,27.09-2.96,53.69-9.29,79.21-18.85Z"/>
  <path d="M125.57,218.64c-2.3-4.93-3.9-10.15-4.76-15.52-4.55-3.41-7.58-8.47-8.44-14.08-2.09-10.58.68-22.43,8.2-35.25.39-3.99.78-6.88,1.12-11.23.73-9.51,2.06-18.97,3.97-28.31-22.67,11.96-43,50.8-34.22,79.95,3.32,12.91,9.91,21.88,19.52,26.7,5.67,2.73,11.94,4,18.23,3.68-1.4-1.84-2.61-3.82-3.62-5.91Z"/>
  <g id="_20-flag1" data-name="_20-flag">
    <g id="filled_outline1" data-name="filled_outline">
      <path d="M127.3,37.43c.22.36,5.39,8.91,14.07,16.72,5.16,4.65,10.5,8.06,15.86,10.14,6.84,2.66,13.72,3.16,20.44,1.48,13.02-3.25,22.17-1.37,27.21,5.6.43.6,1.26,1.74,2.6,1.74.29,0,.57-.05.84-.14.56-.18,1.85-.82,1.85-2.88v-4.53c.55.08,1.12.14,1.7.18v51.91c0,1.41,1.14,2.55,2.55,2.55s2.55-1.14,2.55-2.55v-51.91c5.14-.4,10.19-2.08,10.19-5.85s-5.05-5.44-10.19-5.85v-12.09c5.14-.4,10.19-2.08,10.19-5.85s-5.05-5.44-10.19-5.85v-14.54c0-1.41-1.14-2.55-2.55-2.55s-2.55,1.14-2.55,2.55v14.54c-.58.05-1.15.11-1.7.18v-1.52c0-1.01-.59-1.92-1.52-2.33-.3-.13-7.41-3.23-18.02-3.23-10.01,0-17.04,4.35-23.84,8.56-10.05,6.22-18.73,11.58-36.07,1.95-1.01-.56-2.27-.37-3.07.46-.8.83-.95,2.09-.35,3.08ZM210.16,41.78c.55.08,1.12.14,1.7.18v12.09c-.58.05-1.15.11-1.7.18v-12.46ZM211.86,35.39v1.46c-.59-.06-1.16-.13-1.7-.23v-1.01c.54-.09,1.11-.17,1.7-.23ZM216.96,36.85v-1.47c1.29.1,2.57.35,3.81.74-1.24.38-2.52.63-3.81.74ZM216.96,60.63v-1.47c1.29.1,2.57.35,3.81.74-1.24.38-2.52.63-3.81.74ZM210.16,60.41v-1.01c.54-.09,1.11-.17,1.7-.23v1.46c-.59-.06-1.16-.13-1.7-.23ZM137.2,42.39c3.91,1.32,7.43,1.88,10.65,1.88,8.68,0,15.21-4.04,21.61-8,6.48-4.01,12.61-7.8,21.16-7.8,6.82,0,12.01,1.41,14.44,2.23v33.44c-1.46-1.17-3.08-2.14-4.8-2.88-6.22-2.69-14.24-2.84-23.85-.44-17.13,4.28-31.68-9.31-39.22-18.43Z"/>
    </g>
  </g>
</svg>