<?xml version="1.0" encoding="UTF-8"?>
<svg id="Layer_1" data-name="Layer 1" xmlns="http://www.w3.org/2000/svg" viewBox="0 0 800 800">
  <defs>
    <style>
      .cls-1 {
        fill: #4d1965;
      }
    </style>
  </defs>
  <path class="cls-1" d="M400,0C179.09,0,0,179.09,0,400s179.09,400,400,400,400-179.08,400-400S620.92,0,400,0ZM50,400c0-87.71,32.51-167.94,86.01-229.42l493.64,493.64c-61.51,53.81-141.83,86.57-229.65,86.57-192.99,0-350-157.8-350-350.79h0ZM664.86,628.74L171.41,135.29c61.39-53.07,141.27-85.29,228.59-85.29,192.99,0,350,157.01,350,350,0,87.24-32.15,167.21-85.14,228.74Z"/>
</svg>