<?xml version="1.0" encoding="UTF-8"?>
<svg id="Layer_1" xmlns="http://www.w3.org/2000/svg" version="1.1" viewBox="0 0 512 512">
  <!-- Generator: Adobe Illustrator 29.5.1, SVG Export Plug-In . SVG Version: 2.1.0 Build 141)  -->
  <defs>
    <style>
      .st0 {
        fill: #fff;
      }
    </style>
  </defs>
  <path class="st0" d="M276.07,181.51h0c11.86.08,21.53-9.46,21.61-21.32.08-11.86-9.46-21.53-21.32-21.61-.1,0-.2,0-.29,0h0c-11.86-.08-21.53,9.46-21.61,21.32-.08,11.86,9.46,21.53,21.32,21.61.1,0,.2,0,.29,0Z"/>
  <rect class="st0" x="87.43" y="368.14" width="28.57" height="107.86"/>
  <path class="st0" d="M351.61,202.14c-4.28-6.18-12.77-7.72-18.95-3.43-.53.37-1.04.78-1.51,1.22-.1.09-.2.18-.3.26l-60.77,48.21,6.9,9.59c1.61,2.24,1.1,5.37-1.14,6.98-2.24,1.61-5.37,1.1-6.98-1.14l-67.15-93.36c-2.53-3.56-6.63-5.66-10.99-5.65h-.05c-4.34-.03-8.43,2.05-10.98,5.57l-66.41,90.89c-4.4,6.04-3.07,14.51,2.97,18.91,2.33,1.7,5.14,2.61,8.02,2.6h257.27c7.48.04,13.56-6,13.58-13.48,0-2.76-.83-5.46-2.39-7.73l-41.1-59.43Z"/>
  <rect class="st0" x="396" y="368.14" width="28.57" height="107.86"/>
  <path class="st0" d="M444.57,106.75H67.43c-4.34,0-7.85,3.52-7.86,7.86v197.11c0,4.34,3.52,7.85,7.86,7.86h377.15c4.34,0,7.85-3.52,7.86-7.86V114.6c0-4.34-3.52-7.85-7.86-7.85ZM253.77,137.79c5.91-5.92,13.93-9.23,22.29-9.21h0c17.39,0,31.5,14.08,31.54,31.47-.02,17.4-14.13,31.48-31.53,31.46h0c-17.39,0-31.49-14.08-31.53-31.47-.02-8.35,3.3-16.37,9.24-22.25h0ZM402.42,280.17c-4.07,7.78-12.12,12.65-20.9,12.63H124.25c-13,0-23.56-10.51-23.58-23.51,0-5,1.57-9.87,4.52-13.91l66.41-90.89c4.42-6.11,11.51-9.71,19.05-9.67h.09c7.57-.01,14.68,3.64,19.07,9.81l54.41,75.65,60.26-47.81c9.63-8.8,24.57-8.12,33.36,1.5.72.78,1.38,1.61,1.98,2.49l41.1,59.43c4.99,7.18,5.56,16.55,1.49,24.28Z"/>
  <path class="st0" d="M470.29,68.18h-42.14v-22.18h9.23c2.76,0,5-2.24,5-5s-2.24-5-5-5h-28.45c-2.76,0-5,2.24-5,5s2.24,5,5,5h9.23v22.18h-157.14v-22.18h9.23c2.76,0,5-2.24,5-5s-2.24-5-5-5h-28.45c-2.76,0-5,2.24-5,5s2.24,5,5,5h9.23v22.18H93.86v-22.18h9.23c2.76,0,5-2.24,5-5s-2.24-5-5-5h-28.45c-2.76,0-5,2.24-5,5s2.24,5,5,5h9.23v22.18h-42.14c-11.43.01-20.7,9.28-20.71,20.71v248.53c.01,11.43,9.28,20.7,20.71,20.71h428.58c11.43-.01,20.7-9.28,20.71-20.71V88.89c-.01-11.43-9.28-20.7-20.71-20.71ZM39.72,271.05c-.01,2.75-2.25,4.97-5,4.97h-.02c-2.76-.02-4.99-2.27-4.97-5.03l.5-89.71c.02-2.75,2.25-4.97,5-4.97h.03c2.76.02,4.99,2.27,4.97,5.03h0s-.51,89.71-.51,89.71ZM40.38,158.51c-.03,2.74-2.26,4.95-5,4.95h-.05c-2.76-.02-4.98-2.28-4.96-5.04,0,0,0,0,0,0l.16-17.75c.03-2.74,2.26-4.95,5-4.95h.05c2.76.02,4.98,2.28,4.96,5.04,0,0,0,0,0,0l-.16,17.75ZM462.43,311.71c-.01,9.86-8,17.84-17.86,17.86H67.43c-9.86-.01-17.84-8-17.86-17.86V114.6c.01-9.86,8-17.84,17.86-17.85h377.15c9.86.01,17.84,8,17.86,17.85v197.11Z"/>
</svg>