<?xml version="1.0" encoding="UTF-8"?>
<svg id="Glyph" xmlns="http://www.w3.org/2000/svg" version="1.1" viewBox="0 0 64 64">
  <!-- Generator: Adobe Illustrator 29.5.1, SVG Export Plug-In . SVG Version: 2.1.0 Build 141)  -->
  <defs>
    <style>
      .st0 {
        fill: #fff;
      }
    </style>
  </defs>
  <path class="st0" d="M55,9.33H9c-2.76,0-5,2.24-5,5v6.54h56v-6.54c0-2.76-2.24-5-5-5ZM13.02,18.35c-1.79-.03-3.23-1.5-3.2-3.3.02-1.76,1.45-3.18,3.2-3.2,1.79.03,3.23,1.5,3.2,3.3-.03,1.76-1.44,3.18-3.2,3.2ZM21.96,18.35c-1.79-.03-3.23-1.5-3.2-3.3.02-1.76,1.45-3.18,3.2-3.2,1.79.03,3.23,1.5,3.2,3.3-.02,1.76-1.45,3.18-3.2,3.2ZM30.9,18.35c-1.79-.03-3.23-1.5-3.2-3.3.02-1.76,1.45-3.18,3.2-3.2,1.79.03,3.23,1.5,3.2,3.3-.03,1.76-1.44,3.18-3.2,3.2Z"/>
  <path class="st0" d="M4,22.87v26.8c0,2.76,2.24,5,5,5h46c2.76,0,5-2.24,5-5v-26.8H4ZM29.51,29.58h23.14c.55,0,.99.46.99,1.01,0,.54-.44.98-.99.99h-23.14c-.55-.01-.99-.47-.98-1.02,0-.54.44-.97.98-.98ZM52.65,49.83c.55,0,.99.46.98,1.02,0,.54-.44.98-.98.98H11.61c-.55,0-.99-.46-.98-1.02,0-.54.44-.98.98-.98h41.04ZM15,44.08c0-.55.44-1,.99-1,0,0,0,0,0,0h36.65c.55,0,.99.46.99,1.01,0,.54-.44.98-.99.99H16c-.55,0-1-.45-1-1ZM24.21,36.33h28.44c.55,0,.99.46.99,1.01,0,.54-.44.98-.99.99h-28.44c-.55,0-.99-.46-.99-1.01,0-.54.44-.98.99-.99ZM8.2,28.71c0-1.65,1.35-3,3-3h7.06c1.65,0,3,1.35,3,3v7.06c0,1.65-1.35,3-3,3h-7.06c-1.65,0-3-1.35-3-3v-7.06Z"/>
  <path class="st0" d="M13.02,13.85c-.69.02-1.24.59-1.22,1.28.02.67.55,1.21,1.22,1.22.69-.02,1.24-.59,1.22-1.28-.02-.67-.55-1.21-1.22-1.22Z"/>
  <path class="st0" d="M21.96,13.85c-.69.02-1.24.59-1.22,1.28.02.67.55,1.21,1.22,1.22.69-.02,1.24-.59,1.22-1.28-.01-.67-.55-1.21-1.22-1.22Z"/>
  <path class="st0" d="M30.9,13.85c-.69.02-1.24.59-1.22,1.28.02.67.55,1.21,1.22,1.22.69-.02,1.24-.59,1.22-1.28-.01-.67-.55-1.21-1.22-1.22Z"/>
  <rect class="st0" x="10.2" y="27.71" width="9.06" height="9.06" rx="1" ry="1"/>
</svg>