<?xml version="1.0" encoding="UTF-8"?>
<svg id="Layer_1" xmlns="http://www.w3.org/2000/svg" version="1.1" viewBox="0 0 53 53">
  <!-- Generator: Adobe Illustrator 29.5.1, SVG Export Plug-In . SVG Version: 2.1.0 Build 141)  -->
  <defs>
    <style>
      .st0 {
        fill: #fff;
      }
    </style>
  </defs>
  <path class="st0" d="M6.06,19.75c-1.24,0-2.45-.04-3.61-.12-.41-.03-.73-.39-.7-.8.03-.41.39-.72.8-.7,18.19,1.25,47.43-8.12,47.72-8.21.39-.12.82.09.94.48.13.39-.09.82-.48.94-.28.09-26.2,8.4-44.67,8.4Z"/>
  <path class="st0" d="M17.75,43.11c-.1,0-.2-.02-.29-.05-.37-.14-1.49-.56-11.04-23.78-.16-.38.03-.82.41-.98.38-.16.82.03.98.41,2.99,7.27,7.8,18.53,9.69,22.02.72-3.83,1.94-15.56,2.62-23.11.04-.41.4-.71.81-.68.41.04.72.4.68.82-2.25,24.63-3.06,25.04-3.5,25.26-.1.05-.24.08-.37.08ZM17.2,41.91h0Z"/>
  <path class="st0" d="M32.65,40.3s-.02,0-.03,0c-.5-.02-1.2-.05-12.67-19.22-.21-.35-.1-.82.26-1.03.35-.21.82-.1,1.03.26,3.4,5.69,8.74,14.38,10.92,17.5.31-4.06.74-15.33.98-22.68.01-.41.38-.72.77-.73.41.01.74.36.73.77-.77,24-1.18,24.58-1.34,24.8-.14.2-.4.33-.64.33Z"/>
  <path class="st0" d="M43.7,39.32c-.56,0-1.74,0-10.51-21.33-.16-.38.02-.82.41-.98.38-.16.82.03.98.41,3.37,8.19,7.35,17.19,8.94,19.8.85-3.3,2.3-15.09,3.36-25.76.04-.41.41-.72.82-.67.41.04.71.41.67.82-2.75,27.71-3.85,27.71-4.66,27.71Z"/>
</svg>