<?xml version="1.0" encoding="UTF-8"?>
<svg id="Layer_1" xmlns="http://www.w3.org/2000/svg" version="1.1" viewBox="0 0 64 64">
  <!-- Generator: Adobe Illustrator 29.5.1, SVG Export Plug-In . SVG Version: 2.1.0 Build 141)  -->
  <defs>
    <style>
      .st0 {
        fill: #fff;
      }
    </style>
  </defs>
  <path class="st0" d="M7.23,17.08h7.89c.55,0,1,.45,1,1s-.45,1-1,1H6.11l-1.4,2.48h54.58l-3.92-6.96H8.63l-1.4,2.48ZM19.13,17.08h1.23c.55,0,1,.45,1,1s-.45,1-1,1h-1.23c-.55,0-1-.45-1-1s.45-1,1-1Z"/>
  <rect class="st0" x="6.74" y="29.73" width="1.76" height="19.68"/>
  <rect class="st0" x="55.5" y="29.73" width="1.76" height="19.68"/>
  <path class="st0" d="M4,27.73h6.15l1.83-2.44c.2-.26.51-.43.83-.4.33.01.63.18.81.46l1.55,2.39h5.27l1.83-2.44c.2-.26.51-.43.83-.4.33.01.63.18.81.46l1.55,2.39h14.78l1.84-2.45c.2-.26.5-.42.83-.4.33.01.63.18.8.46l1.55,2.39h14.75v-4.17H4v4.17Z"/>
  <rect class="st0" x="17.1" y="39.29" width="29.81" height="1.94"/>
  <rect class="st0" x="17.1" y="43.23" width="29.81" height="6.18"/>
</svg>