<?xml version="1.0" encoding="UTF-8"?>
<svg id="Layer_1" data-name="Layer 1" xmlns="http://www.w3.org/2000/svg" viewBox="0 0 700 700">
  <defs>
    <style>
      .cls-1 {
        fill: #4d1965;
      }
    </style>
  </defs>
  <path class="cls-1" d="M700,487.5v175c.05,20.66-16.65,37.45-37.31,37.5-.06,0-.13,0-.19,0h-175c-33.42,0-50.14-40.47-26.56-64.06l56.56-56.56-167.5-167.5-167.55,167.66,56.61,56.41c23.58,23.59,6.86,64.06-26.56,64.06H37.5C16.84,700.05.05,683.35,0,662.69c0-.06,0-.13,0-.19v-175C0,454.06,40.45,437.34,64.06,460.94l56.55,56.56,167.61-167.5L120.59,182.34l-56.53,56.72C40.47,262.66,0,245.94,0,212.5V37.5C-.05,16.84,16.65.05,37.31,0c.06,0,.13,0,.19,0h175C245.92,0,262.64,40.47,239.06,64.06l-56.56,56.56,167.5,167.5,167.55-167.66-56.61-56.41C437.36,40.47,454.08,0,487.5,0h175c20.66-.05,37.45,16.65,37.5,37.31,0,.06,0,.13,0,.19v175c0,33.44-40.45,50.16-64.06,26.56l-56.55-56.56-167.61,167.5,167.62,167.66,56.53-56.56c23.59-23.75,64.06-7.03,64.06,26.41Z"/>
</svg>