<?xml version="1.0" encoding="UTF-8"?>
<svg id="Layer_1" xmlns="http://www.w3.org/2000/svg" version="1.1" viewBox="0 0 1000 1000">
  <!-- Generator: Adobe Illustrator 29.5.1, SVG Export Plug-In . SVG Version: 2.1.0 Build 141)  -->
  <defs>
    <style>
      .st0 {
        fill: #1e40af;
      }
    </style>
  </defs>
  <path class="st0" d="M500,135.3c-201.4,0-364.7,163.3-364.7,364.7s163.3,364.7,364.7,364.7,364.7-163.3,364.7-364.7-163.3-364.7-364.7-364.7h0ZM723.6,579.3h-134.3c-5.5,0-10,4.5-10,10v134.3c0,5.5-4.5,10-10,10h-138.6c-5.5,0-10-4.5-10-10v-134.3c0-5.5-4.5-10-10-10h-134.3c-5.5,0-10-4.5-10-10v-138.6c0-5.5,4.5-10,10-10h134.3c5.5,0,10-4.5,10-10v-134.3c0-5.5,4.5-10,10-10h138.6c5.5,0,10,4.5,10,10v134.3c0,5.5,4.5,10,10,10h134.3c5.5,0,10,4.5,10,10v138.6c0,5.5-4.5,10-10,10h0Z"/>
</svg>