<?xml version="1.0" encoding="UTF-8"?>
<svg id="Bahan_copy" xmlns="http://www.w3.org/2000/svg" version="1.1" viewBox="0 0 64 64">
  <!-- Generator: Adobe Illustrator 29.5.1, SVG Export Plug-In . SVG Version: 2.1.0 Build 141)  -->
  <defs>
    <style>
      .st0 {
        fill: #fff;
      }
    </style>
  </defs>
  <path class="st0" d="M51.27,10.38c-.55-.37-1.25-.45-1.86-.2-5.34,2.75-11.82,1.93-16.29-2.08-2.01-2.11-4.75-3.39-7.66-3.58h-3.34c-3.17-.19-6.39,1.65-8.27,2.97v-2.49c0-.55-.45-1-1-1s-1,.45-1,1v54c0,.55.46.99,1.01.99.54,0,.98-.44.99-.99v-25.17c1.1-.9,4.82-3.68,8.21-3.48h3.36c2.37.19,4.59,1.24,6.24,2.96.49.46,1.01.88,1.56,1.27,4.42,3.24,10.2,3.98,15.3,1.95l2.38-.95c.76-.3,1.26-1.04,1.26-1.86V12.04c0-.66-.33-1.28-.88-1.66ZM47.78,34.67c-4.45,1.74-9.49,1.1-13.36-1.7-.68-.51-1.16-.92-1.29-1.03-2.01-2.11-4.75-3.39-7.66-3.58h-3.34c-3.15-.19-6.38,1.65-8.27,2.98V10c1.11-.9,4.83-3.69,8.21-3.48h3.36c2.37.19,4.59,1.24,6.24,2.96,5.03,4.6,12.39,5.62,18.49,2.56v21.68s-2.37.95-2.37.95Z"/>
</svg>