<?xml version="1.0" encoding="UTF-8"?>
<svg id="glipy_copy_3" xmlns="http://www.w3.org/2000/svg" version="1.1" viewBox="0 0 64 64">
  <!-- Generator: Adobe Illustrator 29.5.1, SVG Export Plug-In . SVG Version: 2.1.0 Build 141)  -->
  <defs>
    <style>
      .st0 {
        fill: #1e40af;
      }
    </style>
  </defs>
  <path class="st0" d="M17.37,30.59v2.81c.78-.39,1.09-1.33.71-2.11-.15-.31-.4-.55-.71-.71Z"/>
  <path class="st0" d="M46.63,33.41v-2.81c-.78.39-1.09,1.33-.71,2.11.15.31.4.55.71.71Z"/>
  <rect class="st0" x="48.06" y="28.11" width="3.94" height="7.77"/>
  <path class="st0" d="M51.29,17.92h-18.57v8.42c3.12.4,5.34,3.25,4.94,6.37-.33,2.58-2.36,4.61-4.94,4.94v8.42h18.57c.39,0,.71-.32.71-.71,0,0,0,0,0,0v-8.05h-4.66c-.39,0-.71-.32-.71-.71,0,0,0,0,0,0v-1.68c-1.61-.39-2.61-2.01-2.22-3.63.26-1.1,1.12-1.95,2.22-2.22v-1.68c0-.39.32-.71.71-.71,0,0,0,0,0,0h4.66v-8.05c0-.39-.32-.71-.71-.71,0,0,0,0,0,0Z"/>
  <rect class="st0" x="12" y="28.11" width="3.94" height="7.77"/>
  <path class="st0" d="M12,18.64v8.05h4.66c.39,0,.71.32.71.71,0,0,0,0,0,0v1.68c1.61.39,2.61,2.01,2.22,3.63-.26,1.1-1.12,1.95-2.22,2.22v1.68c0,.39-.32.71-.71.71,0,0,0,0,0,0h-4.66v8.05c0,.39.32.71.71.71,0,0,0,0,0,0h18.57v-8.42c-3.12-.4-5.34-3.25-4.94-6.37.33-2.58,2.36-4.61,4.94-4.94v-8.42H12.71c-.39,0-.71.32-.71.71,0,0,0,0,0,0Z"/>
  <path class="st0" d="M36.27,32c0-2.08-1.5-3.86-3.56-4.21v8.41c2.05-.34,3.56-2.12,3.56-4.21Z"/>
  <path class="st0" d="M27.73,32c0,2.08,1.5,3.86,3.56,4.21v-8.41c-2.05.34-3.56,2.12-3.56,4.21Z"/>
</svg>