<?xml version="1.0" encoding="UTF-8"?>
<svg id="Layer_1" xmlns="http://www.w3.org/2000/svg" version="1.1" xmlns:xodm="http://www.corel.com/coreldraw/odm/2003" viewBox="0 0 512 512">
  <!-- Generator: Adobe Illustrator 29.5.1, SVG Export Plug-In . SVG Version: 2.1.0 Build 141)  -->
  <defs>
    <style>
      .st0 {
        fill: #1e40af;
        fill-rule: evenodd;
      }
    </style>
  </defs>
  <g id="Layer_x5F_1">
    <g id="_1994413833856">
      <path class="st0" d="M94.59,326.94c0-20.9-14.7-37.9-32.77-37.9s-32.77,17-32.77,37.9,14.7,37.91,32.77,37.91,32.77-17.01,32.77-37.91Z"/>
      <path class="st0" d="M61.82,276.44c25.01,0,45.36,22.66,45.36,50.5s-20.35,50.5-45.36,50.5-45.36-22.66-45.36-50.5,20.35-50.5,45.36-50.5ZM89.71,263.76c-9.81-3.86-13.04-7.6-27.89-7.6-34.09,0-61.82,31.75-61.82,70.78s27.73,70.78,61.82,70.78,61.82-31.75,61.82-70.78c0-26.85-12.99-51.03-33.93-63.18Z"/>
      <path class="st0" d="M114.9,268.43c32.67,37.11,27.18,99.03-12.21,128.15h43.7l25.52-91.99c-.89-13,.94-25.82,5.17-37.54h-49.27c-4.19.86-8.51,1.34-12.91,1.38Z"/>
      <path class="st0" d="M114.28,222.97c18.06,0,32.76-17.01,32.76-37.91s-14.7-37.9-32.76-37.9-32.77,17-32.77,37.9,14.7,37.91,32.77,37.91Z"/>
      <path class="st0" d="M159.63,185.06c0,27.85-20.35,50.5-45.35,50.5s-45.36-22.65-45.36-50.5,20.35-50.49,45.36-50.49,45.35,22.65,45.35,50.49ZM52.46,185.06c0,39.03,27.73,70.78,61.82,70.78s61.82-31.75,61.82-70.78-27.74-70.78-61.82-70.78-61.82,31.75-61.82,70.78Z"/>
      <path class="st0" d="M154.8,115.17c44.86,32.77,45.16,106.04.67,139.29h27.3c5.95-10.77,14.02-19.91,23.55-26.69l31.22-112.6h-82.74Z"/>
      <path class="st0" d="M250.61,115.17l-28.91,104.26c8.53-3.33,17.58-4.92,27.02-4.55l27.66-99.71s-25.77,0-25.77,0Z"/>
      <polygon class="st0" points="289.44 115.17 261.55 215.71 287.32 215.71 315.17 115.33 289.44 115.17"/>
      <path class="st0" d="M327.68,117.31l-27.29,98.4h72.5c19.8-39.71-2.45-87.53-45.21-98.4Z"/>
      <path class="st0" d="M369.37,228.3h-82.74c44.85,32.77,45.15,106.03.67,139.29h43.44l38.63-139.29h0Z"/>
      <path class="st0" d="M307.92,298.19c0-39.03-27.73-70.78-61.82-70.78s-61.82,31.75-61.82,70.78,27.73,70.79,61.82,70.79,61.82-31.76,61.82-70.79ZM246.1,247.7c25.01,0,45.36,22.65,45.36,50.49s-20.35,50.5-45.36,50.5-45.35-22.65-45.35-50.5,20.34-50.49,45.35-50.49h0Z"/>
      <path class="st0" d="M278.87,298.19c0-20.9-14.7-37.9-32.77-37.9s-32.76,17-32.76,37.9,14.7,37.91,32.76,37.91,32.77-17.01,32.77-37.91Z"/>
      <polygon class="st0" points="382.44 228.3 343.81 367.59 369.57 367.59 408.2 228.3 382.44 228.3"/>
      <polygon class="st0" points="421.27 228.3 382.64 367.59 408.4 367.59 446.99 228.46 421.27 228.3"/>
      <path class="st0" d="M459.51,230.44l-38.04,137.15h20.89c38.4,0,69.64-31.24,69.64-69.64,0-32.49-22.36-59.85-52.49-67.51Z"/>
      <path class="st0" d="M275.92,380.18h-16.28c-7.69.79-8.74,1.9-18.31,1.21l-4.21,15.19h21.99c9.13,0,16.59-7.28,16.81-16.4Z"/>
      <path class="st0" d="M224.06,396.58l4.79-17.28c-8.19-2.19-15.87-5.89-22.76-10.84l-7.8,28.12h25.77Z"/>
      <path class="st0" d="M185.23,396.58l10.33-37.26c-7.61-7.9-13.75-17.56-17.89-28.4l-18.21,65.66h25.77Z"/>
    </g>
  </g>
</svg>