<?xml version="1.0" encoding="UTF-8"?>
<svg id="Layer_1" data-name="Layer 1" xmlns="http://www.w3.org/2000/svg" viewBox="0 0 47.74 42.48">
  <defs>
    <style>
      .cls-1 {
        fill: #fff;
      }
    </style>
  </defs>
  <path class="cls-1" d="M24.25,30.58c.43.49,4.21,4.91,4.21,7.29,0,2.54-2.06,4.61-4.58,4.61s-4.61-2.07-4.61-4.61c0-2.38,3.8-6.8,4.23-7.29.09-.11.23-.17.38-.17.14,0,.28.06.37.17"/>
  <path class="cls-1" d="M47.74,17.85c0,4.57-3.91,8.29-8.71,8.29H8.7c-2.47,0-4.82-1-6.45-2.74-1.45-1.52-2.25-3.49-2.25-5.55,0-4.58,3.9-8.31,8.7-8.31.3,0,.62.01.95.05.81-1.19,1.94-2.15,3.27-2.79,2.45-1.22,5.44-1.23,7.91-.04.01-.03.02-.06.02-.09.69-2.62,2.76-4.74,5.54-5.65l1.71-.57c1.91-.62,3.9-.6,5.61.08,3.53,1.41,5.82,4.68,5.82,8.34,0,.23-.01.46-.03.68,4.62.27,8.24,3.89,8.24,8.3"/>
  <path class="cls-1" d="M9.38,30.58c.43.49,4.21,4.91,4.21,7.29,0,2.54-2.05,4.61-4.58,4.61s-4.61-2.07-4.61-4.61c0-2.38,3.8-6.8,4.23-7.29.1-.11.23-.17.38-.17.14,0,.28.06.37.17"/>
  <path class="cls-1" d="M39.12,30.58c.43.49,4.21,4.91,4.21,7.29,0,2.54-2.06,4.61-4.59,4.61s-4.6-2.07-4.6-4.61c0-2.38,3.8-6.8,4.23-7.29.09-.11.23-.17.37-.17h0c.14,0,.28.06.37.17"/>
</svg>