<?xml version="1.0" encoding="UTF-8"?>
<svg id="Layer_1" data-name="Layer 1" xmlns="http://www.w3.org/2000/svg" viewBox="0 0 800 640">
  <defs>
    <style>
      .cls-1 {
        fill: #4d1965;
      }
    </style>
  </defs>
  <path class="cls-1" d="M60,0C26.91,0,0,26.91,0,60v80c0,11.05,8.95,20,20,20h100V60C120,26.91,93.09,0,60,0ZM320,515.71v-75.71h360V120c0-66.17-53.82-120-120-120H139.49c12.69,16.76,20.51,37.4,20.51,60v460c0,48.59,43.31,87.06,93.44,78.9,39.34-6.4,66.56-43.33,66.56-83.19ZM360,480v40c0,66.16-53.82,120-120,120h420c77.32,0,140-62.68,140-140,0-11.05-8.95-20-20-20h-420Z"/>
</svg>