<?xml version="1.0" encoding="UTF-8"?>
<svg id="Layer_1" data-name="Layer 1" xmlns="http://www.w3.org/2000/svg" viewBox="0 0 800 640">
  <defs>
    <style>
      .cls-1 {
        fill: #4d1965;
      }
    </style>
  </defs>
  <g id="SVGRepo_iconCarrier" data-name="SVGRepo iconCarrier">
    <path class="cls-1" d="M780,460H100c-11,0-20,9-20,20v20c0,11,9,20,20,20h680c11,0,20-9,20-20v-20c0-11-9-20-20-20ZM180,580H20c-11,0-20,9-20,20v20c0,11,9,20,20,20h160c11,0,20-9,20-20v-20c0-11-9-20-20-20ZM700,580h-420c-11,0-20,9-20,20v20c0,11,9,20,20,20h420c11,0,20-9,20-20v-20c0-11-9-20-20-20ZM180,360h195.13c28.12,24.63,64.5,40,104.87,40s76.62-15.37,104.87-40h75.13c77.38,0,140-62.63,140-140s-62.62-140-140-140c-22.5,0-43.38,5.75-62.13,15.12C567.5,38.75,508.5,0,440,0c-51.25,0-97.25,21.62-130,56C277.25,21.62,231.25,0,180,0,80.62,0,0,80.62,0,180s80.62,180,180,180Z"/>
  </g>
</svg>