<?xml version="1.0" encoding="UTF-8"?>
<svg id="Layer_1" xmlns="http://www.w3.org/2000/svg" version="1.1" viewBox="0 0 512 512">
  <!-- Generator: Adobe Illustrator 29.5.1, SVG Export Plug-In . SVG Version: 2.1.0 Build 141)  -->
  <defs>
    <style>
      .st0 {
        fill: #1e40af;
        fill-rule: evenodd;
      }
    </style>
  </defs>
  <g id="Layer_x5F_1">
    <path class="st0" d="M290.36,512H25.6c-4.79,0-8.7-3.88-8.7-8.7V74.04c0-4.79,3.91-8.7,8.7-8.7h264.76c4.82,0,8.7,3.91,8.7,8.7v429.26c0,4.82-3.88,8.7-8.7,8.7ZM251.55,466.9c2.41,0,4.37-1.96,4.37-4.39s-1.96-4.37-4.37-4.37H64.43c-2.44,0-4.39,1.96-4.39,4.37s1.96,4.39,4.39,4.39h187.12ZM251.55,424.83c2.41,0,4.37-1.96,4.37-4.37s-1.96-4.39-4.37-4.39H64.43c-2.44,0-4.39,1.96-4.39,4.39s1.96,4.37,4.39,4.37h187.12ZM251.55,382.79c2.41,0,4.37-1.96,4.37-4.39s-1.96-4.37-4.37-4.37H64.43c-2.44,0-4.39,1.96-4.39,4.37s1.96,4.39,4.39,4.39h187.12ZM251.55,340.73c2.41,0,4.37-1.96,4.37-4.37s-1.96-4.37-4.37-4.37H64.43c-2.44,0-4.39,1.96-4.39,4.37s1.96,4.37,4.39,4.37h187.12ZM222.49,298.69c2.44,0,4.39-1.96,4.39-4.39s-1.96-4.37-4.39-4.37H93.46c-2.41,0-4.37,1.96-4.37,4.37s1.96,4.39,4.37,4.39h129.03ZM251.55,256.62c2.41,0,4.37-1.96,4.37-4.37V114.83c0-2.41-1.96-4.37-4.37-4.37H64.43c-2.44,0-4.39,1.96-4.39,4.37v137.43c0,2.41,1.96,4.37,4.39,4.37h187.12ZM68.8,247.89V119.23h178.36v128.67H68.8Z"/>
    <path class="st0" d="M486.4,446.66h-178.7V74.04c0-9.55-7.77-17.32-17.35-17.32h-11.99L218.81.48c.88-.31,1.84-.48,2.83-.48h264.76c4.82,0,8.7,3.88,8.7,8.7v429.26c0,4.79-3.88,8.7-8.7,8.7ZM439.77,388.75c2.41,0,4.37-1.96,4.37-4.37V62.28c0-2.41-1.96-4.37-4.37-4.37s-4.37,1.96-4.37,4.37v322.1c0,2.41,1.96,4.37,4.37,4.37ZM265.64,56.72h-52.7V8.7c0-.54.06-1.08.14-1.59l52.55,49.61Z"/>
  </g>
</svg>