<?xml version="1.0" encoding="UTF-8"?>
<svg id="Solid" xmlns="http://www.w3.org/2000/svg" viewBox="0 0 58.39 51.76">
  <defs>
    <style>
      .cls-1 {
        fill: #fff;
      }
    </style>
  </defs>
  <path class="cls-1" d="M33.1,2.25c-.82-1.41-2.27-2.25-3.9-2.25s-3.08.84-3.9,2.25L.62,45.01c-.82,1.41-.82,3.09,0,4.5.81,1.41,2.27,2.25,3.89,2.25h49.38c1.62,0,3.08-.84,3.89-2.25.82-1.41.82-3.09,0-4.5L33.1,2.25ZM29.2,44.21c-1.38,0-2.5-1.12-2.5-2.5s1.12-2.5,2.5-2.5,2.5,1.12,2.5,2.5-1.12,2.5-2.5,2.5ZM31.7,33.01c0,1.38-1.12,2.5-2.5,2.5s-2.5-1.12-2.5-2.5v-15.57c0-1.38,1.12-2.5,2.5-2.5s2.5,1.12,2.5,2.5v15.57Z"/>
</svg>