<?xml version="1.0" encoding="UTF-8"?>
<svg id="Layer_1" data-name="Layer 1" xmlns="http://www.w3.org/2000/svg" viewBox="0 0 600 666.67">
  <defs>
    <style>
      .cls-1 {
        fill-rule: evenodd;
      }

      .cls-1, .cls-2 {
        fill: #4d1965;
      }
    </style>
  </defs>
  <g id="SVGRepo_iconCarrier" data-name="SVGRepo iconCarrier">
    <path class="cls-2" d="M170.52,406.94c-3.77,2.43-7.62,4.89-11.48,7.25,7.12,71.58,67.51,127.48,140.97,127.48,78.24,0,141.67-63.43,141.67-141.67v-.18c-4.44.8-9.02,1.51-13.46,2.19l-.52.08c-5.39.84-10.71,1.66-16.18,2.64-23.36,4.21-42.23,2.51-58.61-3.53-15.22-5.62-26.7-14.52-35.16-21.1l-.79-.61c-9.18-7.12-15.18-11.57-22.61-14.31-6.76-2.49-16.43-4.12-32.43-1.23-23.46,4.23-44.44,14.21-63.82,25.65-8.3,4.89-15.99,9.86-23.58,14.76l-3.99,2.57Z"/>
    <path class="cls-1" d="M0,266.67C0,140.96,0,78.11,39.05,39.05,78.11,0,140.96,0,266.67,0h66.67c125.71,0,188.56,0,227.61,39.05,39.05,39.05,39.05,101.91,39.05,227.61v133.33c0,125.71,0,188.56-39.05,227.61-39.05,39.05-101.91,39.05-227.61,39.05h-66.67c-125.71,0-188.56,0-227.61-39.05C0,588.56,0,525.71,0,400v-133.33ZM491.67,400c0-7.31-.41-14.52-1.21-21.62l.67-.46-3.03-14.92c-17.24-88.15-94.9-154.67-188.1-154.67-105.85,0-191.67,85.81-191.67,191.67s85.81,191.67,191.67,191.67,191.67-85.81,191.67-191.67ZM166.67,108.33c-13.81,0-25,11.19-25,25s11.19,25,25,25h266.67c13.81,0,25-11.19,25-25s-11.19-25-25-25H166.67Z"/>
  </g>
</svg>