<?xml version="1.0" encoding="UTF-8"?>
<svg id="Layer_1" data-name="Layer 1" xmlns="http://www.w3.org/2000/svg" viewBox="0 0 1445 1105">
  <defs>
    <style>
      .cls-1 {
        fill: #fff;
      }
    </style>
  </defs>
  <path class="cls-1" d="M1445,807.5c0,164.02-133.48,297.5-297.5,297.5-23.49,0-42.5-19.01-42.5-42.5s19.01-42.5,42.5-42.5c117.17,0,212.5-95.29,212.5-212.5s-95.33-212.5-212.5-212.5H42.5c-23.49,0-42.5-19.01-42.5-42.5s19.01-42.5,42.5-42.5h1105c164.02,0,297.5,133.48,297.5,297.5ZM722.5,1020c-23.49,0-42.5,19.01-42.5,42.5s19.01,42.5,42.5,42.5c117.17,0,212.5-95.29,212.5-212.5s-95.33-212.5-212.5-212.5H212.5c-23.49,0-42.5,19.01-42.5,42.5s19.01,42.5,42.5,42.5h510c70.31,0,127.5,57.19,127.5,127.5s-57.19,127.5-127.5,127.5ZM340,382.5c0,23.49,19.01,42.5,42.5,42.5h510c117.17,0,212.5-95.33,212.5-212.5S1009.67,0,892.5,0c-23.49,0-42.5,19.01-42.5,42.5s19.01,42.5,42.5,42.5c70.31,0,127.5,57.19,127.5,127.5s-57.19,127.5-127.5,127.5h-510c-23.49,0-42.5,19.01-42.5,42.5Z"/>
</svg>